# xmcd CD database file
#
# Track frame offsets:
#	150
#	18381
#	42692
#	58212
#	82438
#	101269
#	121823
#	140950
#	161315
#	180079
#	199848
#	234879
#	258943
#	296398
#	313924
#
# Disc length: 4356 seconds
#
# Revision: 2
# Processed by: cddbd v1.4b41PL1 Copyright (c) Steve Scherf et al.
# Submitted via: Feurio! 1.52 - http://www.feurio.com
#
DISCID=d211020f
DTITLE=Various Artist - Uli die 2te
DYEAR=1900
DGENRE=
TTITLE0=Maxim feat. Skin - Carmen Queasy
TTITLE1=Phil Collins - In the Air Tonight
TTITLE2=??? - MARILYNMANSON SWEET
TTITLE3=Red Hot Chili Peppers - Californication
TTITLE4=Kelis - Caught out there
TTITLE5=Amanda Marshall - Let It Rain
TTITLE6=Oomph - Fieber
TTITLE7=Neneh Cherry - Woman
TTITLE8=??? - MEREDITHBROOKS BITCH
TTITLE9=Santana - Maria Maria
TTITLE10=Lenny Kravitz - Little Girl's Eyes
TTITLE11=Metallica - Mama Said
TTITLE12=Metallica - Bleeding Me (2)
TTITLE13=Daniella's Daze - 100% Jesus
TTITLE14=??? - SACRIF~1
EXTD=
EXTT0=
EXTT1=AzzBackwardz Collection
EXTT2=
EXTT3=
EXTT4=
EXTT5=
EXTT6=
EXTT7=
EXTT8=
EXTT9=
EXTT10=All I have and all I do\r\nCannot compare to the love of you \r\nYou 
EXTT10=make me feel alive\r\nYou are my highest high \r\nAll I can do is 
EXTT10=smile\r\nWhen I look in my little girl's eyes \r\nYou're my star and 
EXTT10=when I'm far\r\nYou're not alone cause your heart's my home \r\nYou are 
EXTT10=my biggest prize\r\nSo beautiful and so wise\r\nAll I want to do when I 
EXTT10=come into the room is see her smile \r\nWhen I look in my little girl's 
EXTT10=eyes\r\nYou make me feel alive \r\nYou are my highest high \r\nAll I 
EXTT10=can do is smile\r\nWhenI look in my littl
EXTT11=
EXTT12=
EXTT13=
EXTT14=
PLAYORDER=
